<svg width="128" height="128" viewBox="0 0 128 128" fill="none" xmlns="http://www.w3.org/2000/svg">
<g filter="url(#filter0_d_1_5)">
<path d="M48.9546 70.897V59.8262C48.9546 58.3089 48.6589 56.8817 48.0674 55.5444C47.5016 54.1815 46.7173 52.9985 45.7144 51.9956C44.7114 50.9927 43.5285 50.2083 42.1655 49.6426C40.8283 49.0511 39.401 48.7554 37.8838 48.7554C36.3665 48.7554 34.9264 49.0511 33.5635 49.6426C32.2262 50.2083 31.0562 50.9927 30.0532 51.9956C29.0503 52.9985 28.2531 54.1815 27.6616 55.5444C27.0959 56.8817 26.813 58.3089 26.813 59.8262V70.897H48.9546ZM60.0254 93H48.9546V81.9292H26.813V93H15.7808V59.8262C15.7808 56.766 16.3594 53.8986 17.5166 51.2241C18.6738 48.5239 20.2425 46.1709 22.2227 44.165C24.2285 42.1592 26.5687 40.5776 29.2432 39.4204C31.9434 38.2632 34.8236 37.6846 37.8838 37.6846C40.944 37.6846 43.8114 38.2632 46.4858 39.4204C49.186 40.5776 51.5391 42.1592 53.5449 44.165C55.5508 46.1709 57.1323 48.5239 58.2896 51.2241C59.4468 53.8986 60.0254 56.766 60.0254 59.8262V93ZM102.187 70.897V59.8262C102.187 58.3089 101.891 56.8817 101.3 55.5444C100.734 54.1815 99.9497 52.9985 98.9468 51.9956C97.9438 50.9927 96.7609 50.2083 95.3979 49.6426C94.0607 49.0511 92.6335 48.7554 91.1162 48.7554C89.599 48.7554 88.1589 49.0511 86.7959 49.6426C85.4587 50.2083 84.2886 50.9927 83.2856 51.9956C82.2827 52.9985 81.4855 54.1815 80.894 55.5444C80.3283 56.8817 80.0454 58.3089 80.0454 59.8262V70.897H102.187ZM113.258 93H102.187V81.9292H80.0454V93H69.0132V59.8262C69.0132 56.766 69.5918 53.8986 70.749 51.2241C71.9062 48.5239 73.4749 46.1709 75.4551 44.165C77.4609 42.1592 79.8011 40.5776 82.4756 39.4204C85.1758 38.2632 88.056 37.6846 91.1162 37.6846C94.1764 37.6846 97.0438 38.2632 99.7183 39.4204C102.418 40.5776 104.771 42.1592 106.777 44.165C108.783 46.1709 110.365 48.5239 111.522 51.2241C112.679 53.8986 113.258 56.766 113.258 59.8262V93Z" fill="#F1E3CE"/>
</g>
<defs>
<filter id="filter0_d_1_5" x="11.7808" y="37.6846" width="105.477" height="63.3154" filterUnits="userSpaceOnUse" color-interpolation-filters="sRGB">
<feFlood flood-opacity="0" result="BackgroundImageFix"/>
<feColorMatrix in="SourceAlpha" type="matrix" values="0 0 0 0 0 0 0 0 0 0 0 0 0 0 0 0 0 0 127 0" result="hardAlpha"/>
<feOffset dy="4"/>
<feGaussianBlur stdDeviation="2"/>
<feComposite in2="hardAlpha" operator="out"/>
<feColorMatrix type="matrix" values="0 0 0 0 0 0 0 0 0 0 0 0 0 0 0 0 0 0 0.25 0"/>
<feBlend mode="normal" in2="BackgroundImageFix" result="effect1_dropShadow_1_5"/>
<feBlend mode="normal" in="SourceGraphic" in2="effect1_dropShadow_1_5" result="shape"/>
</filter>
</defs>
</svg>
